PathFileType	4	(X/Y/Z)	/Users/itak/Documents/Research/Walk-IL/dataset/trc/00347_00011.trc
DataRate	CameraRate	NumFrames	NumMarkers	Units	OrigDataRate	OrigDataStartFrame	OrigNumFrames
100.000000	100.000000	4	53	mm	100.000000	274	732
Frame#	Time	RPSI			LPSI			STRN			T10			C7			CLAV			RBAK			LBAK			LSHO			LUPA			LAEL			LAOL			LWTS			LWPS			LFRA			LIFD			LHPS			LHTS			RSHO			RUPA			RAEL			RAOL			RWTS			RWPS			RFRA			RHTS			RHPS			RBHD			LFHD			RFHD			LBHD			LHIP			RHIP			RASI			LASI			LKNE			LTHI			LANK			LTIP			LTOE			LMT1			LMT5			LHEE			RKNE			RANK			RTIP			RTOE			RMT1			RMT5			RHEE			L3			RIFD			RTHI			
		X1	Y1	Z1	X2	Y2	Z2	X3	Y3	Z3	X4	Y4	Z4	X5	Y5	Z5	X6	Y6	Z6	X7	Y7	Z7	X8	Y8	Z8	X9	Y9	Z9	X10	Y10	Z10	X11	Y11	Z11	X12	Y12	Z12	X13	Y13	Z13	X14	Y14	Z14	X15	Y15	Z15	X16	Y16	Z16	X17	Y17	Z17	X18	Y18	Z18	X19	Y19	Z19	X20	Y20	Z20	X21	Y21	Z21	X22	Y22	Z22	X23	Y23	Z23	X24	Y24	Z24	X25	Y25	Z25	X26	Y26	Z26	X27	Y27	Z27	X28	Y28	Z28	X29	Y29	Z29	X30	Y30	Z30	X31	Y31	Z31	X32	Y32	Z32	X33	Y33	Z33	X34	Y34	Z34	X35	Y35	Z35	X36	Y36	Z36	X37	Y37	Z37	X38	Y38	Z38	X39	Y39	Z39	X40	Y40	Z40	X41	Y41	Z41	X42	Y42	Z42	X43	Y43	Z43	X44	Y44	Z44	X45	Y45	Z45	X46	Y46	Z46	X47	Y47	Z47	X48	Y48	Z48	X49	Y49	Z49	X50	Y50	Z50	X51	Y51	Z51	X52	Y52	Z52	X53	Y53	Z53	

275	2.74	-284.5041809082031	929.871826171875	205.1980133056641	-410.5652465820312	949.6592407226562	180.4539184570312	-288.2171936035156	1173.688720703125	-33.34506988525391	-360.41943359375	1121.337280273438	201.1349792480469	-349.5352172851562	1367.453125	144.2334289550781	-295.534912109375	1301.811157226562	1.165624141693115	-309.2733459472656	1229.868041992188	220.5788116455078	-450.3940734863281	1334.531982421875	123.7651596069336	-473.616943359375	1350.17236328125	24.96273231506348	-556.5689086914062	1241.209228515625	13.19588279724121	-612.6480712890625	1056.102783203125	-50.65203857421875	-574.4052124023438	1014.18017578125	15.05319690704346	-560.8070678710938	895.0950317382812	-237.3484039306641	-622.4253540039062	869.9947509765625	-219.9110260009766	-626.0138549804688	972.4322509765625	-107.7697067260742	-556.900146484375	767.100830078125	-332.6087951660156	-618.8139038085938	811.3658447265625	-257.9604187011719	-575.6329345703125	841.1739501953125	-295.1428833007812	-178.5887451171875	1345.933349609375	146.2633819580078	-129.541259765625	1281.881225585938	188.5952301025391	-133.0766906738281	1021.3115234375	253.045166015625	-226.9839782714844	1023.420349121094	244.4752349853516	-140.6609344482422	777.6973266601562	176.2161102294922	-103.3031768798828	769.0974731445312	242.8317718505859	-120.0872344970703	950.2981567382812	249.2372131347656	-135.4163360595703	668.135009765625	182.8631744384766	-112.9178924560547	682.71142578125	246.3565063476562	-258.2365417480469	1566.453002929688	128.1418609619141	-263.1836853027344	1566.886474609375	-80.80520629882812	-184.6112518310547	1562.488891601562	-17.26365661621094	-385.3803100585938	1570.997802734375	59.26189804077148	-509.6877136230469	901.3457641601562	83.33771514892578	-172.3131408691406	867.1986694335938	138.1674041748047	-200.5651397705078	898.2149658203125	30.87702751159668	-432.9609985351562	910.3031005859375	-30.3636589050293	-539.9180297851562	456.2583312988281	121.2148590087891	-534.064208984375	586.0585327148438	87.65804290771484	-575.0043334960938	132.4691925048828	425.7464294433594	-573.7797241210938	286.4570007324219	272.9088439941406	-559.6695556640625	40.62933349609375	257.2576293945312	-501.2215881347656	41.94246292114258	304.4596557617188	-614.924072265625	56.11253356933594	334.0869445800781	-501.8277282714844	142.7262420654297	442.1259765625	-229.4530639648438	431.1129455566406	-51.75509262084961	-336.2522583007812	44.17958068847656	-117.0135345458984	-247.7937164306641	320.3448486328125	-93.77538299560547	-240.7067718505859	59.07613754272461	-289.1179504394531	-307.2125244140625	44.68598937988281	-280.1311340332031	-251.1289367675781	37.82582473754883	-177.2035217285156	-404.6841735839844	44.06040191650391	-116.1749038696289	-350.1802978515625	1000.455017089844	194.6399688720703	-168.7892913818359	602.1527099609375	212.3901062011719	-164.8527984619141	678.6721801757812	17.75150680541992	
276	2.75	-282.3134460449219	931.255859375	196.0787353515625	-408.1307373046875	950.2525024414062	169.4775390625	-282.3857116699219	1175.080688476562	-42.14782333374023	-356.9771118164062	1122.0263671875	191.6212615966797	-345.4558410644531	1368.26611328125	135.6923217773438	-290.3150024414062	1302.951293945312	-7.033515930175781	-305.8729248046875	1230.470703125	212.092529296875	-446.0802612304688	1335.518188476562	114.4133987426758	-468.613037109375	1351.061401367188	15.43387699127197	-551.3670654296875	1241.81298828125	3.784939050674438	-606.4111328125	1055.655517578125	-57.69912338256836	-568.102783203125	1014.83642578125	8.746808052062988	-552.768310546875	891.6267700195312	-241.5040130615234	-615.0372924804688	867.224609375	-224.6168060302734	-619.2601928710938	971.25	-113.6890411376953	-548.0133666992188	761.9825439453125	-334.3759765625	-610.795166015625	807.795166015625	-261.4195251464844	-567.101806640625	836.7384033203125	-298.5159606933594	-174.6628265380859	1346.85302734375	139.0933685302734	-125.7636947631836	1282.647583007812	181.4850006103516	-129.2525329589844	1021.566223144531	243.8881530761719	-223.15576171875	1023.785278320312	235.2490234375	-136.3766479492188	778.5458374023438	164.7440490722656	-99.19841766357422	769.5277099609375	231.4336090087891	-116.2127456665039	950.592529296875	239.5034790039062	-130.1510467529297	669.6351928710938	169.7548522949219	-108.6006393432617	683.069091796875	233.8768157958984	-253.9236297607422	1567.17431640625	120.4054412841797	-257.0792541503906	1567.687744140625	-88.47282409667969	-178.9772186279297	1563.2568359375	-24.29702949523926	-380.4298706054688	1571.879028320312	50.52804183959961	-505.5292663574219	901.983154296875	70.63876342773438	-168.8291473388672	868.7421875	131.0670013427734	-195.4456939697266	899.5958251953125	23.42764854431152	-426.6424560546875	911.2262573242188	-41.43564224243164	-537.5591430664062	456.5487060546875	102.6635437011719	-530.6300659179688	586.007080078125	70.59806823730469	-578.645751953125	141.3970947265625	415.4346618652344	-574.5640258789062	290.7708129882812	258.3151245117188	-560.1729125976562	39.94604110717773	256.5460205078125	-502.3830871582031	44.22022247314453	302.0529174804688	-616.833984375	58.08561325073242	329.599853515625	-505.708984375	153.4227142333984	431.8202514648438	-225.4877166748047	431.7882995605469	-58.45389175415039	-335.9410095214844	44.76814270019531	-118.0791702270508	-244.6794738769531	320.2286071777344	-99.74162292480469	-241.4792327880859	55.58041763305664	-291.8376159667969	-308.120849609375	42.1881103515625	-281.8628540039062	-251.7023315429688	37.53105163574219	-179.1230316162109	-404.3704528808594	44.95169830322266	-116.8234939575195	-347.3851623535156	1001.037963867188	184.9112854003906	-163.6913757324219	603.0810546875	198.5442504882812	-160.1144714355469	679.1398315429688	11.50392723083496	
277	2.76	-280.1531066894531	932.6405029296875	187.1580810546875	-405.6368103027344	950.9354858398438	158.6930084228516	-276.4295654296875	1176.608642578125	-50.76475143432617	-353.4740905761719	1122.78369140625	182.1585998535156	-341.4194946289062	1369.143798828125	127.2305908203125	-285.0575866699219	1304.225463867188	-15.09000682830811	-302.46484375	1231.182495117188	203.6401062011719	-441.7749633789062	1336.566650390625	105.0928726196289	-463.5536499023438	1352.054565429688	5.94023323059082	-546.1141357421875	1242.55517578125	-5.656431198120117	-600.0497436523438	1055.3203125	-64.61611175537109	-561.6578979492188	1015.692565917969	2.555300235748291	-544.7725219726562	887.9727172851562	-245.3233947753906	-607.6810302734375	864.283935546875	-228.9025726318359	-612.4329833984375	970.114013671875	-119.3723068237305	-539.312744140625	756.4656982421875	-335.4192810058594	-602.8511352539062	803.9848022460938	-264.271484375	-558.5848999023438	831.9644775390625	-301.350830078125	-170.8047485351562	1348.007934570312	132.0746765136719	-122.0456771850586	1283.704956054688	174.5657501220703	-125.3261108398438	1022.120849609375	234.8426513671875	-219.2459106445312	1024.390502929688	226.1685943603516	-131.6633605957031	779.843017578125	153.0476226806641	-94.76927947998047	770.287841796875	219.828369140625	-112.1672821044922	951.1837158203125	229.7963562011719	-124.3541564941406	671.5745239257812	156.2934417724609	-103.839225769043	683.766845703125	221.0786743164062	-249.5995941162109	1567.989013671875	112.7726135253906	-250.8831939697266	1568.509887695312	-96.03245544433594	-173.2974700927734	1564.0263671875	-31.18785095214844	-375.4289245605469	1572.868286132812	41.84852600097656	-501.1405029296875	902.7528076171875	58.03472518920898	-165.3403625488281	870.2172241210938	124.3590469360352	-190.1111145019531	901.0130004882812	16.34683036804199	-419.9867553710938	912.380859375	-52.32907867431641	-534.9122924804688	456.8228759765625	83.13613891601562	-526.9251708984375	585.9837646484375	52.94010925292969	-582.6767578125	150.8219604492188	403.3971252441406	-575.3529663085938	295.042724609375	242.3046875	-560.6680297851562	38.82345962524414	255.3086700439453	-503.7048950195312	46.88574981689453	299.0928955078125	-618.7090454101562	60.58155059814453	324.2113647460938	-510.0191345214844	164.5299987792969	419.9895629882812	-221.5698852539062	432.3057250976562	-64.64871215820312	-335.5608215332031	45.24605941772461	-118.9758377075195	-241.5895233154297	320.0190734863281	-105.2810897827148	-242.0107421875	52.53783798217773	-294.0700073242188	-308.8359680175781	40.25407791137695	-283.2421264648438	-252.1222991943359	37.25967407226562	-180.7203826904297	-403.9558410644531	45.69165420532227	-117.2497711181641	-344.3561401367188	1001.802551269531	175.2754669189453	-157.8346710205078	604.630615234375	184.0515594482422	-155.4738159179688	679.4048461914062	5.860942363739014	
278	2.77	-278.0225219726562	933.9122314453125	178.4954986572266	-403.0927124023438	951.6326904296875	148.1441955566406	-270.403076171875	1178.1845703125	-59.12894821166992	-349.9126586914062	1123.558227539062	172.7894134521484	-337.43359375	1370.032470703125	118.8555908203125	-279.773681640625	1305.56640625	-22.99854469299316	-299.03515625	1231.9404296875	195.2204895019531	-437.4879760742188	1337.624145507812	95.8228759765625	-458.4588317871094	1353.08447265625	-3.502889633178711	-540.8182983398438	1243.363647460938	-15.11272716522217	-593.6117553710938	1055.049682617188	-71.42398071289062	-555.1346435546875	1016.677490234375	-3.551863431930542	-536.8521118164062	884.1495361328125	-248.8586578369141	-600.3546142578125	861.1726684570312	-232.8121643066406	-605.5633544921875	968.9890747070312	-124.85546875	-530.7973022460938	750.5885620117188	-335.7971496582031	-595.0144653320312	799.9539184570312	-266.5909423828125	-550.08203125	826.8771362304688	-303.7000122070312	-167.0009460449219	1349.338134765625	125.2166748046875	-118.3877334594727	1284.972290039062	167.8352203369141	-121.3146057128906	1022.915222167969	225.9906311035156	-215.2610778808594	1025.166748046875	217.2911224365234	-126.5325469970703	781.570068359375	141.1413726806641	-90.02880859375	771.3322143554688	208.0347290039062	-107.9615173339844	952.0060424804688	220.2032012939453	-118.0888519287109	673.8980102539062	142.5208435058594	-98.63808441162109	684.7864379882812	207.9736022949219	-245.2855072021484	1568.858032226562	105.2635040283203	-244.6129608154297	1569.333984375	-103.4688339233398	-167.59814453125	1564.777465820312	-37.92267990112305	-370.3978576660156	1573.924438476562	33.23612976074219	-496.5529479980469	903.570068359375	45.59706878662109	-161.8982391357422	871.4948120117188	118.064079284668	-184.6133880615234	902.3734130859375	9.653754234313965	-413.0937805175781	913.671142578125	-62.97899627685547	-531.88818359375	457.0455627441406	62.77510070800781	-522.8959350585938	585.9578247070312	34.80894470214844	-586.974853515625	160.6696929931641	389.6247253417969	-576.0389404296875	299.18408203125	224.9630279541016	-561.1016235351562	37.2159538269043	253.4262390136719	-505.1237487792969	50.05580520629883	295.5010986328125	-620.454345703125	63.73777770996094	317.7863159179688	-514.6455078125	175.9331207275391	406.6846008300781	-217.7301025390625	432.61865234375	-70.29604339599609	-335.144775390625	45.64440536499023	-119.6929931640625	-238.5671081542969	319.6856994628906	-110.3749694824219	-242.2816619873047	49.90854644775391	-295.8002319335938	-309.3367614746094	38.78882598876953	-284.2922668457031	-252.3927917480469	37.0081672668457	-181.9562530517578	-403.4978637695312	46.28721237182617	-117.5055084228516	-341.12646484375	1002.661804199219	165.7223663330078	-151.3164520263672	606.6993408203125	168.9875793457031	-151.0028686523438	679.4813842773438	0.7032045125961304	
